<svg xmlns="http://www.w3.org/2000/svg" version="1.1" xmlns:xlink="http://www.w3.org/1999/xlink" xmlns:svgjs="http://svgjs.dev/svgjs" width="100%" height="100%" viewBox="0 0 1000 600"><rect width="1000" height="600" x="0" y="0" fill="#ffffff"/><g><rect width="333.3333333333333" height="333.3333333333333" rx="13.333333333333334" ry="13.333333333333334" y="265.76387814839677" fill="#eeeeee" transform="matrix(0.5132591958939264,0,0,0.5132591958939264,0,78.05104267587)" x="243.5415496826172"/><path d="M390.01045127666123 466.6091995596678L390.01045127666123 466.6091995596678Q390.01045127666123 479.5823259415841 383.56646946332427 488.7231283375951Q377.1224876499873 497.8639307336062 365.5403529370292 502.66143261225795Q353.95821822407106 507.4305469058289 338.28827125948067 507.4305469058289L338.28827125948067 507.4305469058289Q330.0274840009738 507.4305469058289 322.6183242948903 506.6356945235671Q315.2375521738876 505.8408421413053 309.0490586262776 504.33630013202395Q302.86056507866766 502.86014570782345 298.176613540339 500.6459140715226L298.176613540339 500.6459140715226L298.176613540339 484.37982782023585Q305.6709360016648 487.4740745940408 316.4582183323611 490.1141200065533Q327.2171130779766 492.7825530041466 338.9979608865002 492.7825530041466L338.9979608865002 492.7825530041466Q349.9839563127619 492.7825530041466 357.5634415293301 489.8302441557455Q365.14292674589825 486.87793530734444 369.0888010721266 481.3423562165924Q373.03467539835503 475.80677712584037 373.03467539835503 468.02857881370676L373.03467539835503 468.02857881370676Q373.03467539835503 460.5342563523809 369.74171552898457 455.4812662080021Q366.4487556596141 450.4566636487041 358.8124952728844 446.3120762269103Q351.17623488615465 442.1674888051165 338.00439540867285 437.48353726678783L338.00439540867285 437.48353726678783Q328.72165508725794 434.19057739741737 321.624758817063 430.244703071189Q314.5562501319489 426.2988287449606 309.7587482532971 421.3026137707434Q304.9612463746453 416.33478638160693 302.5199140576983 409.74886664286606Q300.07858174075125 403.1345593190444 300.07858174075125 394.67505896497204L300.07858174075125 394.67505896497204Q300.07858174075125 382.9793739116908 306.0115870226342 374.66181148302235Q311.94459230451713 366.31586146927316 322.4763863694864 361.8873981966715Q333.00818043445565 357.4305473389891 346.69099644339144 357.4305473389891L346.69099644339144 357.4305473389891Q358.3582939115919 357.4305473389891 368.2939486898648 359.6447789752899Q378.22960346813767 361.83062302650995 386.4903907266446 365.5210090870113L386.4903907266446 365.5210090870113L381.2102999016196 380.08384023345127Q373.3185512491628 376.79088036408086 364.49001228904035 374.6050363128608Q355.66147332891785 372.4191922616408 346.29357025226057 372.4191922616408L346.29357025226057 372.4191922616408Q336.8972795905225 372.4191922616408 330.4532977771855 375.14440042939566Q324.0377035489293 377.8979961822313 320.6311933392357 382.8942111564485Q317.25307071462294 387.8904261306657 317.25307071462294 394.76022172021436L317.25307071462294 394.76022172021436Q317.25307071462294 402.45325727710565 320.4892554138318 407.5346350065652Q323.7254401130407 412.6160127360248 330.8791115533972 416.56188706225316Q338.00439540867285 420.5077613884815 349.78524321719647 424.7942867356793L349.78524321719647 424.7942867356793Q362.64481925878965 429.50662585908873 371.6436837293968 434.72994151395216Q380.6141606149232 439.98164475389643 385.29811215325185 447.504354800303Q390.01045127666123 455.0554524317904 390.01045127666123 466.6091995596678ZM482.0997772787105 372.4191922616408L482.0997772787105 372.4191922616408Q470.03505361937914 372.4191922616408 460.4116622769949 376.56377968343463Q450.7882709346105 380.67997952014764 444.03202568538495 388.5149530024429Q437.30416802124023 396.34992648473803 433.69894471598116 407.4494722513229Q430.12210899580293 418.520630432827 430.12210899580293 432.40215953732826L430.12210899580293 432.40215953732826Q430.12210899580293 450.7405394995119 435.8564011821204 464.28141758304383Q441.5906933684379 477.7939080814949 453.0308901559921 485.17468020249765Q464.4426993584656 492.5554523235004 481.61718833233726 492.5554523235004L481.61718833233726 492.5554523235004Q491.3825176001255 492.5554523235004 500.01234346468254 490.9089723888152Q508.6705569143203 489.2624924541299 516.8461814175848 486.79277255210206L516.8461814175848 486.79277255210206L516.8461814175848 501.55431679410754Q508.8692700098857 504.5350132275894 500.0691186348441 505.9827800667092Q491.2973548448831 507.4305469058289 479.204243600471 507.4305469058289L479.204243600471 507.4305469058289Q456.9767644822205 507.4305469058289 442.04489472973034 498.20458175457554Q427.1130249772403 488.97861660332217 419.675477686076 472.11639106533903Q412.26631797999255 455.2541655273559 412.26631797999255 432.28860919700514L412.26631797999255 432.28860919700514Q412.26631797999255 415.71025950982977 416.8934943481596 401.9990559158132Q421.52067071632666 388.2878523217966 430.4627600167723 378.29542237336216Q439.4048493172179 368.3313800100085 452.4347508692957 362.88096367449884Q465.4362648362928 357.4305473389891 482.29849037427596 357.4305473389891L482.29849037427596 357.4305473389891Q493.39803614086077 357.4305473389891 503.6743419401031 359.6447789752899Q513.9506477393453 361.83062302650995 522.239822582933 365.9184352781422L522.239822582933 365.9184352781422L515.4551897486267 380.28255332901676Q508.4718438187548 377.1031437999694 500.1258938050056 374.7469742382647Q491.7799437912564 372.4191922616408 482.0997772787105 372.4191922616408Z " fill="#1e1e1e" transform="matrix(0.5132591958939264,0,0,0.5132591958939264,0,78.05104267587)"/><path d="M717.4165477498373 449.40971732775364L717.4165477498373 449.40971732775364Q717.4165477498373 457.09721732775364 713.5623810831705 462.34721732775364Q709.7290477498373 467.5763839944203 702.5832144165039 470.22221732775364Q695.4373810831705 472.84721732775364 685.5623810831705 472.84721732775364L685.5623810831705 472.84721732775364Q677.1248810831705 472.84721732775364 670.9790477498373 471.53471732775364Q664.8332144165039 470.22221732775364 660.2082144165039 467.805550661087L660.2082144165039 467.805550661087L660.2082144165039 456.59721732775364Q665.1248810831705 459.0138839944203 671.9373810831705 460.993050661087Q678.7498810831705 462.97221732775364 685.8540477498373 462.97221732775364L685.8540477498373 462.97221732775364Q696.2498810831705 462.97221732775364 700.9373810831705 459.5972173277537Q705.6248810831705 456.22221732775364 705.6248810831705 450.4513839944203L705.6248810831705 450.4513839944203Q705.6248810831705 447.1388839944203 703.7498810831705 444.618050661087Q701.8957144165039 442.09721732775364 697.4998810831705 439.7013839944203Q693.1040477498373 437.3263839944203 685.3332144165039 434.47221732775364L685.3332144165039 434.47221732775364Q677.6457144165039 431.5347173277537 672.0415477498373 428.65971732775364Q666.4373810831705 425.7638839944203 663.3957144165039 421.5763839944203Q660.3540477498373 417.40971732775364 660.3540477498373 410.743050661087L660.3540477498373 410.743050661087Q660.3540477498373 400.555550661087 668.6040477498373 395.0972173277537Q676.8332144165039 389.6597173277537 690.2498810831705 389.6597173277537L690.2498810831705 389.6597173277537Q697.4998810831705 389.6597173277537 703.8332144165039 391.0763839944203Q710.1665477498373 392.5138839944203 715.6457144165039 394.93055066108695L715.6457144165039 394.93055066108695L711.5623810831705 404.65971732775364Q706.5832144165039 402.5347173277537 700.9373810831705 401.0763839944203Q695.2915477498373 399.61805066108695 689.4373810831705 399.61805066108695L689.4373810831705 399.61805066108695Q681.0207144165039 399.61805066108695 676.4998810831705 402.3888839944203Q671.9998810831705 405.180550661087 671.9998810831705 410.0138839944203L671.9998810831705 410.0138839944203Q671.9998810831705 413.74305066108695 674.0832144165039 416.15971732775364Q676.1873810831705 418.5763839944203 680.7915477498373 420.7013839944203Q685.3957144165039 422.8263839944203 692.9582144165039 425.680550661087L692.9582144165039 425.680550661087Q700.4998810831705 428.47221732775364 705.9790477498373 431.430550661087Q711.4790477498373 434.40971732775364 714.4373810831705 438.61805066108695Q717.4165477498373 442.8263839944203 717.4165477498373 449.40971732775364ZM766.9998810831705 389.805550661087L766.9998810831705 389.805550661087Q781.3540477498373 389.805550661087 788.3123810831705 396.243050661087Q795.2707144165039 402.680550661087 795.2707144165039 416.8263839944203L795.2707144165039 416.8263839944203L795.2707144165039 471.3888839944203L786.4165477498373 471.3888839944203L784.0623810831705 459.5138839944203L783.4790477498373 459.5138839944203Q780.1040477498373 463.90971732775364 776.4373810831705 466.8888839944203Q772.7915477498373 469.84721732775364 767.9790477498373 471.34721732775364Q763.1873810831705 472.84721732775364 756.2290477498373 472.84721732775364L756.2290477498373 472.84721732775364Q748.9165477498373 472.84721732775364 743.2290477498373 470.28471732775364Q737.5623810831705 467.72221732775364 734.2915477498373 462.53471732775364Q731.0415477498373 457.3263839944203 731.0415477498373 449.34721732775364L731.0415477498373 449.34721732775364Q731.0415477498373 437.3263839944203 740.5623810831705 430.8888839944203Q750.0832144165039 424.430550661087 769.5623810831705 423.84721732775364L769.5623810831705 423.84721732775364L783.3957144165039 423.2638839944203L783.3957144165039 418.368050661087Q783.3957144165039 407.9513839944203 778.9373810831705 403.78471732775364Q774.4582144165039 399.61805066108695 766.3332144165039 399.61805066108695L766.3332144165039 399.61805066108695Q760.0415477498373 399.61805066108695 754.3332144165039 401.4513839944203Q748.6040477498373 403.2638839944203 743.4790477498373 405.7638839944203L743.4790477498373 405.7638839944203L739.7498810831705 396.53471732775364Q745.1665477498373 393.74305066108695 752.2082144165039 391.78471732775364Q759.2290477498373 389.805550661087 766.9998810831705 389.805550661087ZM783.2498810831705 439.243050661087L783.2498810831705 431.84721732775364L771.0207144165039 432.3472173277537Q756.0207144165039 432.930550661087 749.8540477498373 437.2638839944203Q743.7082144165039 441.5763839944203 743.7082144165039 449.493050661087L743.7082144165039 449.493050661087Q743.7082144165039 456.368050661087 747.8748810831705 459.65971732775364Q752.0623810831705 462.97221732775364 758.9373810831705 462.97221732775364L758.9373810831705 462.97221732775364Q769.6248810831705 462.97221732775364 776.4373810831705 457.03471732775364Q783.2498810831705 451.09721732775364 783.2498810831705 439.243050661087L783.2498810831705 439.243050661087ZM842.7290477498373 507.43055066108695L842.7290477498373 507.43055066108695Q826.9165477498373 507.43055066108695 818.3332144165039 501.5347173277537Q809.7707144165039 495.6388839944203 809.7707144165039 485.0138839944203L809.7707144165039 485.0138839944203Q809.7707144165039 477.47221732775364 814.5623810831705 472.118050661087Q819.3748810831705 466.78471732775364 827.8540477498373 465.0138839944203L827.8540477498373 465.0138839944203Q824.7082144165039 463.555550661087 822.4790477498373 460.618050661087Q820.2498810831705 457.7013839944203 820.2498810831705 453.8888839944203L820.2498810831705 453.8888839944203Q820.2498810831705 449.493050661087 822.7082144165039 446.15971732775364Q825.1457144165039 442.8263839944203 830.2082144165039 439.743050661087L830.2082144165039 439.743050661087Q823.9165477498373 437.180550661087 819.9790477498373 431.0763839944203Q816.0623810831705 424.9513839944203 816.0623810831705 416.8263839944203L816.0623810831705 416.8263839944203Q816.0623810831705 408.180550661087 819.6665477498373 402.055550661087Q823.2498810831705 395.9513839944203 830.0623810831705 392.7222173277537Q836.8748810831705 389.5138839944203 846.5415477498373 389.5138839944203L846.5415477498373 389.5138839944203Q848.6665477498373 389.5138839944203 850.8332144165039 389.680550661087Q852.9790477498373 389.86805066108695 854.9582144165039 390.2013839944203Q856.9373810831705 390.53471732775364 858.3957144165039 390.97221732775364L858.3957144165039 390.97221732775364L885.9373810831705 390.97221732775364L885.9373810831705 398.80555066108695L871.1457144165039 400.6388839944203Q873.3540477498373 403.49305066108695 874.8123810831705 407.5138839944203Q876.2707144165039 411.555550661087 876.2707144165039 416.4513839944203L876.2707144165039 416.4513839944203Q876.2707144165039 428.47221732775364 868.1457144165039 435.53471732775364Q860.0207144165039 442.59721732775364 845.8123810831705 442.59721732775364L845.8123810831705 442.59721732775364Q842.4373810831705 442.59721732775364 838.9165477498373 442.0138839944203L838.9165477498373 442.0138839944203Q835.3332144165039 443.993050661087 833.4582144165039 446.40971732775364Q831.6040477498373 448.8263839944203 831.6040477498373 451.97221732775364L831.6040477498373 451.97221732775364Q831.6040477498373 454.3263839944203 833.0207144165039 455.7222173277537Q834.4582144165039 457.09721732775364 837.1665477498373 457.72221732775364Q839.8748810831705 458.34721732775364 843.6873810831705 458.34721732775364L843.6873810831705 458.34721732775364L857.8123810831705 458.34721732775364Q870.9373810831705 458.34721732775364 877.9165477498373 463.84721732775364Q884.9165477498373 469.3472173277537 884.9165477498373 479.8888839944203L884.9165477498373 479.8888839944203Q884.9165477498373 493.2222173277537 874.0832144165039 500.3263839944203Q863.2290477498373 507.43055066108695 842.7290477498373 507.43055066108695ZM843.1040477498373 497.9097173277537L843.1040477498373 497.9097173277537Q853.0623810831705 497.9097173277537 859.6040477498373 495.8888839944203Q866.1665477498373 493.86805066108695 869.4165477498373 490.0972173277537Q872.6873810831705 486.3263839944203 872.6873810831705 481.1388839944203L872.6873810831705 481.1388839944203Q872.6873810831705 476.305550661087 870.4790477498373 473.84721732775364Q868.2915477498373 471.3888839944203 864.0415477498373 470.555550661087Q859.7915477498373 469.7013839944203 853.6457144165039 469.7013839944203L853.6457144165039 469.7013839944203L839.7290477498373 469.7013839944203Q834.3123810831705 469.7013839944203 830.2707144165039 471.3888839944203Q826.2498810831705 473.0763839944203 824.0832144165039 476.368050661087Q821.9373810831705 479.65971732775364 821.9373810831705 484.5763839944203L821.9373810831705 484.5763839944203Q821.9373810831705 491.0972173277537 827.4165477498373 494.49305066108695Q832.9165477498373 497.9097173277537 843.1040477498373 497.9097173277537ZM846.2498810831705 433.743050661087L846.2498810831705 433.743050661087Q854.9582144165039 433.743050661087 859.3540477498373 429.34721732775364Q863.7498810831705 424.9513839944203 863.7498810831705 416.53471732775364L863.7498810831705 416.53471732775364Q863.7498810831705 407.5138839944203 859.2915477498373 403.0138839944203Q854.8123810831705 398.5138839944203 846.1040477498373 398.5138839944203L846.1040477498373 398.5138839944203Q837.7498810831705 398.5138839944203 833.2498810831705 403.15971732775364Q828.7498810831705 407.805550661087 828.7498810831705 416.743050661087L828.7498810831705 416.743050661087Q828.7498810831705 424.9513839944203 833.2915477498373 429.34721732775364Q837.8332144165039 433.743050661087 846.2498810831705 433.743050661087ZM931.7915477498373 389.805550661087L931.7915477498373 389.805550661087Q946.1457144165039 389.805550661087 953.1040477498373 396.243050661087Q960.0623810831705 402.680550661087 960.0623810831705 416.8263839944203L960.0623810831705 416.8263839944203L960.0623810831705 471.3888839944203L951.2082144165039 471.3888839944203L948.8540477498373 459.5138839944203L948.2707144165038 459.5138839944203Q944.8957144165039 463.90971732775364 941.2498810831705 466.8888839944203Q937.5832144165038 469.84721732775364 932.7915477498373 471.34721732775364Q927.9790477498373 472.84721732775364 921.0207144165039 472.84721732775364L921.0207144165039 472.84721732775364Q913.7082144165039 472.84721732775364 908.0207144165039 470.28471732775364Q902.3540477498373 467.72221732775364 899.0832144165039 462.53471732775364Q895.8332144165039 457.3263839944203 895.8332144165039 449.34721732775364L895.8332144165039 449.34721732775364Q895.8332144165039 437.3263839944203 905.3540477498373 430.8888839944203Q914.8748810831705 424.430550661087 934.3540477498373 423.84721732775364L934.3540477498373 423.84721732775364L948.2082144165039 423.2638839944203L948.2082144165039 418.368050661087Q948.2082144165039 407.9513839944203 943.7290477498373 403.78471732775364Q939.2707144165039 399.61805066108695 931.1248810831705 399.61805066108695L931.1248810831705 399.61805066108695Q924.8332144165038 399.61805066108695 919.1248810831705 401.4513839944203Q913.4165477498373 403.2638839944203 908.2915477498373 405.7638839944203L908.2915477498373 405.7638839944203L904.5415477498373 396.53471732775364Q909.9582144165039 393.74305066108695 916.9998810831705 391.78471732775364Q924.0207144165039 389.805550661087 931.7915477498373 389.805550661087ZM948.0623810831705 439.243050661087L948.0623810831705 431.84721732775364L935.8123810831705 432.3472173277537Q920.8123810831705 432.930550661087 914.6457144165039 437.2638839944203Q908.4998810831705 441.5763839944203 908.4998810831705 449.493050661087L908.4998810831705 449.493050661087Q908.4998810831705 456.368050661087 912.6665477498373 459.65971732775364Q916.8540477498373 462.97221732775364 923.7290477498373 462.97221732775364L923.7290477498373 462.97221732775364Q934.4373810831705 462.97221732775364 941.2498810831705 457.03471732775364Q948.0623810831705 451.09721732775364 948.0623810831705 439.243050661087L948.0623810831705 439.243050661087ZM1021.5832144165039 389.6597173277537L1021.5832144165039 389.6597173277537Q1023.9998810831705 389.6597173277537 1026.6457144165038 389.90971732775364Q1029.2707144165038 390.15971732775364 1031.3332144165038 390.59721732775364L1031.3332144165038 390.59721732775364L1029.7915477498373 401.8888839944203Q1027.8123810831705 401.368050661087 1025.3957144165038 401.0763839944203Q1022.9790477498373 400.78471732775364 1020.8540477498373 400.78471732775364L1020.8540477498373 400.78471732775364Q1016.0207144165039 400.78471732775364 1011.7290477498373 402.72221732775364Q1007.4582144165039 404.65971732775364 1004.2290477498373 408.28471732775364Q1000.9998810831705 411.90971732775364 999.1665477498373 417.0138839944203Q997.3540477498373 422.09721732775364 997.3540477498373 428.3263839944203L997.3540477498373 428.3263839944203L997.3540477498373 471.3888839944203L985.1040477498373 471.3888839944203L985.1040477498373 391.118050661087L995.2290477498373 391.118050661087L996.5415477498373 405.90971732775364L997.0415477498373 405.90971732775364Q999.5415477498373 401.4513839944203 1003.0623810831705 397.743050661087Q1006.5832144165039 394.03471732775364 1011.2290477498373 391.84721732775364Q1015.8748810831705 389.6597173277537 1021.5832144165039 389.6597173277537ZM1117.5415477498373 472.84721732775364L1117.5415477498373 472.84721732775364Q1106.6873810831705 472.84721732775364 1098.4165477498373 468.3888839944203Q1090.1457144165038 463.90971732775364 1085.5207144165038 454.7638839944203Q1080.9165477498373 445.59721732775364 1080.9165477498373 431.7013839944203L1080.9165477498373 431.7013839944203Q1080.9165477498373 417.118050661087 1085.7915477498373 407.84721732775364Q1090.6457144165038 398.5763839944203 1099.2290477498373 394.11805066108695Q1107.7915477498373 389.6597173277537 1118.7082144165038 389.6597173277537L1118.7082144165038 389.6597173277537Q1124.7082144165038 389.6597173277537 1130.3123810831705 390.868050661087Q1135.9165477498373 392.0763839944203 1139.4998810831705 393.8888839944203L1139.4998810831705 393.8888839944203L1135.8540477498373 404.0763839944203Q1132.1873810831705 402.618050661087 1127.3957144165038 401.4513839944203Q1122.5832144165038 400.2638839944203 1118.4165477498373 400.2638839944203L1118.4165477498373 400.2638839944203Q1110.0623810831705 400.2638839944203 1104.5415477498373 403.868050661087Q1098.9998810831705 407.4513839944203 1096.2498810831705 414.40971732775364Q1093.5207144165038 421.368050661087 1093.5207144165038 431.5347173277537L1093.5207144165038 431.5347173277537Q1093.5207144165038 441.28471732775364 1096.1873810831705 448.180550661087Q1098.8540477498373 455.05555066108695 1104.1665477498373 458.680550661087Q1109.4790477498373 462.305550661087 1117.4582144165038 462.305550661087L1117.4582144165038 462.305550661087Q1123.8332144165038 462.305550661087 1128.9582144165038 460.9513839944203Q1134.0832144165038 459.5972173277537 1138.2707144165038 457.7638839944203L1138.2707144165038 457.7638839944203L1138.2707144165038 468.59721732775364Q1134.2290477498373 470.65971732775364 1129.2915477498373 471.7638839944203Q1124.3540477498373 472.84721732775364 1117.5415477498373 472.84721732775364ZM1157.2290477498373 357.43055066108695L1169.3957144165038 357.43055066108695L1169.3957144165038 391.47221732775364Q1169.3957144165038 394.40971732775364 1169.2498810831707 397.368050661087Q1169.1040477498373 400.34721732775364 1168.7290477498373 402.8263839944203L1168.7290477498373 402.8263839944203L1169.5415477498373 402.8263839944203Q1172.0207144165038 398.5763839944203 1175.8748810831705 395.7013839944203Q1179.7082144165038 392.805550661087 1184.6248810831705 391.305550661087Q1189.5415477498373 389.805550661087 1195.0207144165038 389.805550661087L1195.0207144165038 389.805550661087Q1204.6873810831707 389.805550661087 1211.1665477498373 392.868050661087Q1217.6665477498373 395.9513839944203 1220.9165477498373 402.3888839944203Q1224.1665477498373 408.84721732775364 1224.1665477498373 419.09721732775364L1224.1665477498373 419.09721732775364L1224.1665477498373 471.3888839944203L1212.1665477498373 471.3888839944203L1212.1665477498373 419.90971732775364Q1212.1665477498373 409.868050661087 1207.583214416504 404.8888839944203Q1202.9998810831707 399.90971732775364 1193.5623810831705 399.90971732775364L1193.5623810831705 399.90971732775364Q1184.6248810831705 399.90971732775364 1179.3123810831705 403.305550661087Q1173.9998810831705 406.72221732775364 1171.6873810831707 413.305550661087Q1169.3957144165038 419.90971732775364 1169.3957144165038 429.430550661087L1169.3957144165038 429.430550661087L1169.3957144165038 471.3888839944203L1157.2290477498373 471.3888839944203L1157.2290477498373 357.43055066108695ZM1279.2498810831705 389.805550661087L1279.2498810831705 389.805550661087Q1293.6040477498373 389.805550661087 1300.5623810831707 396.243050661087Q1307.5207144165038 402.680550661087 1307.5207144165038 416.8263839944203L1307.5207144165038 416.8263839944203L1307.5207144165038 471.3888839944203L1298.6665477498373 471.3888839944203L1296.3123810831705 459.5138839944203L1295.7290477498373 459.5138839944203Q1292.3540477498373 463.90971732775364 1288.708214416504 466.8888839944203Q1285.0415477498373 469.84721732775364 1280.2498810831707 471.34721732775364Q1275.4373810831705 472.84721732775364 1268.4790477498373 472.84721732775364L1268.4790477498373 472.84721732775364Q1261.1665477498373 472.84721732775364 1255.4790477498373 470.28471732775364Q1249.8123810831705 467.72221732775364 1246.5415477498373 462.53471732775364Q1243.2915477498373 457.3263839944203 1243.2915477498373 449.34721732775364L1243.2915477498373 449.34721732775364Q1243.2915477498373 437.3263839944203 1252.8123810831705 430.8888839944203Q1262.3332144165038 424.430550661087 1281.8123810831707 423.84721732775364L1281.8123810831707 423.84721732775364L1295.6665477498373 423.2638839944203L1295.6665477498373 418.368050661087Q1295.6665477498373 407.9513839944203 1291.1873810831707 403.78471732775364Q1286.7290477498373 399.61805066108695 1278.6040477498373 399.61805066108695L1278.6040477498373 399.61805066108695Q1272.2915477498373 399.61805066108695 1266.5832144165038 401.4513839944203Q1260.8748810831705 403.2638839944203 1255.7498810831707 405.7638839944203L1255.7498810831707 405.7638839944203L1251.9998810831705 396.53471732775364Q1257.4373810831707 393.74305066108695 1264.458214416504 391.78471732775364Q1271.4998810831707 389.805550661087 1279.2498810831705 389.805550661087ZM1295.5207144165038 439.243050661087L1295.5207144165038 431.84721732775364L1283.2915477498373 432.3472173277537Q1268.270714416504 432.930550661087 1262.1248810831707 437.2638839944203Q1255.9582144165038 441.5763839944203 1255.9582144165038 449.493050661087L1255.9582144165038 449.493050661087Q1255.9582144165038 456.368050661087 1260.1457144165038 459.65971732775364Q1264.3123810831705 462.97221732775364 1271.1873810831705 462.97221732775364L1271.1873810831705 462.97221732775364Q1281.8957144165038 462.97221732775364 1288.708214416504 457.03471732775364Q1295.5207144165038 451.09721732775364 1295.5207144165038 439.243050661087L1295.5207144165038 439.243050661087ZM1419.7290477498373 389.6597173277537L1419.7290477498373 389.6597173277537Q1432.9790477498373 389.6597173277537 1439.7290477498373 396.5763839944203Q1446.4582144165038 403.49305066108695 1446.4582144165038 418.805550661087L1446.4582144165038 418.805550661087L1446.4582144165038 471.3888839944203L1434.4582144165038 471.3888839944203L1434.4582144165038 419.3888839944203Q1434.4582144165038 409.6388839944203 1430.2498810831707 404.78471732775364Q1426.0207144165038 399.90971732775364 1417.7498810831707 399.90971732775364L1417.7498810831707 399.90971732775364Q1406.1040477498373 399.90971732775364 1400.8332144165038 406.6388839944203Q1395.5623810831705 413.3888839944203 1395.5623810831705 426.493050661087L1395.5623810831705 426.493050661087L1395.5623810831705 471.3888839944203L1383.4790477498373 471.3888839944203L1383.4790477498373 419.3888839944203Q1383.4790477498373 412.868050661087 1381.6040477498373 408.555550661087Q1379.7498810831705 404.22221732775364 1376.0415477498373 402.055550661087Q1372.3540477498373 399.90971732775364 1366.708214416504 399.90971732775364L1366.708214416504 399.90971732775364Q1358.7290477498373 399.90971732775364 1353.8957144165038 403.2013839944203Q1349.0623810831705 406.493050661087 1346.895714416504 412.97221732775364Q1344.7290477498373 419.4513839944203 1344.7290477498373 428.90971732775364L1344.7290477498373 428.90971732775364L1344.7290477498373 471.3888839944203L1332.583214416504 471.3888839944203L1332.583214416504 391.118050661087L1342.3957144165038 391.118050661087L1344.2290477498373 402.4722173277537L1344.8748810831705 402.4722173277537Q1347.2915477498373 398.28471732775364 1350.9582144165038 395.430550661087Q1354.6248810831705 392.5763839944203 1359.1665477498373 391.118050661087Q1363.708214416504 389.6597173277537 1368.8332144165038 389.6597173277537L1368.8332144165038 389.6597173277537Q1377.9790477498373 389.6597173277537 1384.1665477498373 393.055550661087Q1390.3540477498373 396.47221732775364 1393.1457144165038 403.40971732775364L1393.1457144165038 403.40971732775364L1393.8123810831705 403.40971732775364Q1397.7498810831705 396.47221732775364 1404.6457144165038 393.055550661087Q1411.5207144165038 389.6597173277537 1419.7290477498373 389.6597173277537ZM1483.6665477498373 357.43055066108695L1483.6665477498373 471.3888839944203L1471.4373810831705 471.3888839944203L1471.4373810831705 357.43055066108695L1483.6665477498373 357.43055066108695ZM1509.3123810831705 391.118050661087L1521.4582144165038 391.118050661087L1521.4582144165038 471.3888839944203L1509.3123810831705 471.3888839944203L1509.3123810831705 391.118050661087ZM1515.5415477498373 361.0763839944203L1515.5415477498373 361.0763839944203Q1518.5415477498373 361.0763839944203 1520.6873810831705 363.0347173277537Q1522.8540477498373 364.9722173277537 1522.8540477498373 369.0763839944203L1522.8540477498373 369.0763839944203Q1522.8540477498373 373.0972173277537 1520.6873810831705 375.0763839944203Q1518.5415477498373 377.05555066108695 1515.5415477498373 377.05555066108695L1515.5415477498373 377.05555066108695Q1512.3748810831707 377.05555066108695 1510.2915477498373 375.0763839944203Q1508.208214416504 373.0972173277537 1508.208214416504 369.0763839944203L1508.208214416504 369.0763839944203Q1508.208214416504 364.9722173277537 1510.2915477498373 363.0347173277537Q1512.3748810831707 361.0763839944203 1515.5415477498373 361.0763839944203ZM1585.1873810831707 389.6597173277537L1585.1873810831707 389.6597173277537Q1599.4582144165038 389.6597173277537 1606.7915477498373 396.6388839944203Q1614.1248810831705 403.6388839944203 1614.1248810831705 419.09721732775364L1614.1248810831705 419.09721732775364L1614.1248810831705 471.3888839944203L1602.1040477498373 471.3888839944203L1602.1040477498373 419.90971732775364Q1602.1040477498373 409.868050661087 1597.5207144165038 404.8888839944203Q1592.9582144165038 399.90971732775364 1583.4998810831707 399.90971732775364L1583.4998810831707 399.90971732775364Q1570.1665477498373 399.90971732775364 1564.7498810831707 407.4513839944203Q1559.3332144165038 414.993050661087 1559.3332144165038 429.34721732775364L1559.3332144165038 429.34721732775364L1559.3332144165038 471.3888839944203L1547.1665477498373 471.3888839944203L1547.1665477498373 391.118050661087L1556.9790477498373 391.118050661087L1558.8123810831705 402.680550661087L1559.4790477498373 402.680550661087Q1562.0415477498373 398.43055066108695 1565.9998810831705 395.555550661087Q1569.958214416504 392.65971732775364 1574.8540477498373 391.1597173277537Q1579.7707144165038 389.6597173277537 1585.1873810831707 389.6597173277537ZM1661.5832144165038 507.43055066108695L1661.5832144165038 507.43055066108695Q1645.7498810831705 507.43055066108695 1637.1873810831705 501.5347173277537Q1628.6248810831705 495.6388839944203 1628.6248810831705 485.0138839944203L1628.6248810831705 485.0138839944203Q1628.6248810831705 477.47221732775364 1633.4165477498373 472.118050661087Q1638.2082144165038 466.78471732775364 1646.7082144165038 465.0138839944203L1646.7082144165038 465.0138839944203Q1643.5623810831705 463.555550661087 1641.3332144165038 460.618050661087Q1639.083214416504 457.7013839944203 1639.083214416504 453.8888839944203L1639.083214416504 453.8888839944203Q1639.083214416504 449.493050661087 1641.5415477498373 446.15971732775364Q1643.9998810831705 442.8263839944203 1649.0623810831705 439.743050661087L1649.0623810831705 439.743050661087Q1642.7498810831707 437.180550661087 1638.833214416504 431.0763839944203Q1634.9165477498373 424.9513839944203 1634.9165477498373 416.8263839944203L1634.9165477498373 416.8263839944203Q1634.9165477498373 408.180550661087 1638.4998810831705 402.055550661087Q1642.1040477498373 395.9513839944203 1648.9165477498373 392.7222173277537Q1655.7082144165038 389.5138839944203 1665.395714416504 389.5138839944203L1665.395714416504 389.5138839944203Q1667.5207144165038 389.5138839944203 1669.6665477498373 389.680550661087Q1671.8332144165038 389.86805066108695 1673.8123810831705 390.2013839944203Q1675.7915477498373 390.53471732775364 1677.2498810831707 390.97221732775364L1677.2498810831707 390.97221732775364L1704.7915477498373 390.97221732775364L1704.7915477498373 398.80555066108695L1689.9998810831707 400.6388839944203Q1692.1873810831707 403.49305066108695 1693.6665477498373 407.5138839944203Q1695.1248810831703 411.555550661087 1695.1248810831703 416.4513839944203L1695.1248810831703 416.4513839944203Q1695.1248810831703 428.47221732775364 1686.9998810831707 435.53471732775364Q1678.8540477498373 442.59721732775364 1664.6457144165038 442.59721732775364L1664.6457144165038 442.59721732775364Q1661.2915477498373 442.59721732775364 1657.7707144165038 442.0138839944203L1657.7707144165038 442.0138839944203Q1654.1873810831707 443.993050661087 1652.3123810831705 446.40971732775364Q1650.4373810831705 448.8263839944203 1650.4373810831705 451.97221732775364L1650.4373810831705 451.97221732775364Q1650.4373810831705 454.3263839944203 1651.8748810831705 455.7222173277537Q1653.2915477498373 457.09721732775364 1656.020714416504 457.72221732775364Q1658.7290477498373 458.34721732775364 1662.520714416504 458.34721732775364L1662.520714416504 458.34721732775364L1676.6665477498373 458.34721732775364Q1689.7707144165038 458.34721732775364 1696.7707144165038 463.84721732775364Q1703.7707144165038 469.3472173277537 1703.7707144165038 479.8888839944203L1703.7707144165038 479.8888839944203Q1703.7707144165038 493.2222173277537 1692.9165477498373 500.3263839944203Q1682.0832144165038 507.43055066108695 1661.5832144165038 507.43055066108695ZM1661.9373810831705 497.9097173277537L1661.9373810831705 497.9097173277537Q1671.895714416504 497.9097173277537 1678.4582144165038 495.8888839944203Q1685.0207144165038 493.86805066108695 1688.2707144165038 490.0972173277537Q1691.5415477498373 486.3263839944203 1691.5415477498373 481.1388839944203L1691.5415477498373 481.1388839944203Q1691.5415477498373 476.305550661087 1689.3332144165038 473.84721732775364Q1687.1457144165038 471.3888839944203 1682.8957144165038 470.555550661087Q1678.645714416504 469.7013839944203 1672.4998810831705 469.7013839944203L1672.4998810831705 469.7013839944203L1658.5832144165038 469.7013839944203Q1653.145714416504 469.7013839944203 1649.1248810831707 471.3888839944203Q1645.1040477498373 473.0763839944203 1642.9373810831705 476.368050661087Q1640.770714416504 479.65971732775364 1640.770714416504 484.5763839944203L1640.770714416504 484.5763839944203Q1640.770714416504 491.0972173277537 1646.2707144165038 494.49305066108695Q1651.7707144165038 497.9097173277537 1661.9373810831705 497.9097173277537ZM1665.0832144165038 433.743050661087L1665.0832144165038 433.743050661087Q1673.8123810831705 433.743050661087 1678.2082144165038 429.34721732775364Q1682.6040477498373 424.9513839944203 1682.6040477498373 416.53471732775364L1682.6040477498373 416.53471732775364Q1682.6040477498373 407.5138839944203 1678.1248810831707 403.0138839944203Q1673.6665477498373 398.5138839944203 1664.9373810831705 398.5138839944203L1664.9373810831705 398.5138839944203Q1656.6040477498373 398.5138839944203 1652.083214416504 403.15971732775364Q1647.5832144165038 407.805550661087 1647.5832144165038 416.743050661087L1647.5832144165038 416.743050661087Q1647.5832144165038 424.9513839944203 1652.1248810831707 429.34721732775364Q1656.6665477498373 433.743050661087 1665.0832144165038 433.743050661087Z " fill="#1e1e1e" transform="matrix(0.5132591958939264,0,0,0.5132591958939264,0,78.05104267587)"/></g></svg>