<svg xmlns="http://www.w3.org/2000/svg" version="1.1" xmlns:xlink="http://www.w3.org/1999/xlink" xmlns:svgjs="http://svgjs.dev/svgjs" width="100%" height="100%" viewBox="0 0 1000 600"><rect width="1000" height="600" x="0" y="0" fill="#f5f5f5"/><g><rect width="333.3333333333333" height="333.3333333333333" rx="13.333333333333334" ry="13.333333333333334" y="285.7222002563476" fill="#ffffff" transform="matrix(0.4743833017077799,0,0,0.4743833017077799,0,85.39426218716875)" x="263.4999389648437"/><path d="M409.96883919576925 486.56752842535474L409.96883919576925 486.56752842535474Q409.96883919576925 499.54065480727104 403.52485738243223 508.68145720328204Q397.0808755690952 517.8222595992931 385.49874085613715 522.6197614779448Q373.916606143179 527.3888757715158 358.24665917858863 527.3888757715158L358.24665917858863 527.3888757715158Q349.98587192008176 527.3888757715158 342.5767122139983 526.5940233892541Q335.1959400929955 525.7991710069923 329.00744654538556 524.2946289977109Q322.8189529977756 522.8184745735105 318.135001459447 520.6042429372096L318.135001459447 520.6042429372096L318.135001459447 504.3381566859228Q325.6293239207728 507.43240345972777 336.4166062514691 510.0724488722403Q347.17550099708455 512.7408818698336 358.9563488056081 512.7408818698336L358.9563488056081 512.7408818698336Q369.94234423186987 512.7408818698336 377.52182944843804 509.78857302143246Q385.1013146650062 506.8362641730314 389.0471889912346 501.30068508227936Q392.99306331746294 495.7651059915273 392.99306331746294 487.9869076793937L392.99306331746294 487.9869076793937Q392.99306331746294 480.49258521806786 389.70010344809253 475.4395950736891Q386.40714357872207 470.41499251439103 378.77088319199237 466.27040509259723Q371.1346228052626 462.12581767080343 357.96278332778087 457.4418661324748L357.96278332778087 457.4418661324748Q348.6800430063659 454.1489062631043 341.58314673617093 450.20303193687596Q334.5146380510568 446.25715761064754 329.71713617240505 441.26094263643034Q324.9196342937533 436.2931152472939 322.4783019768062 429.707195508553Q320.0369696598592 423.09288818473135 320.0369696598592 414.633387830659L320.0369696598592 414.633387830659Q320.0369696598592 402.93770277737775 325.9699749417421 394.6201403487093Q331.9029802236251 386.2741903349601 342.4347742885944 381.84572706235843Q352.9665683535636 377.388876204676 366.64938436249946 377.388876204676L366.64938436249946 377.388876204676Q378.3166818306999 377.388876204676 388.2523366089727 379.60310784097686Q398.18799138724563 381.7889518921969 406.4487786457525 385.47933795269824L406.4487786457525 385.47933795269824L401.1686878207275 400.0421690991382Q393.27693916827076 396.7492092297678 384.44840020814826 394.56336517854777Q375.6198612480258 392.3775211273277 366.25195817136847 392.3775211273277L366.25195817136847 392.3775211273277Q356.85566750963045 392.3775211273277 350.41168569629343 395.1027292950826Q343.99609146803726 397.85632504791823 340.5895812583437 402.85254002213543Q337.2114586337309 407.8487549963526 337.2114586337309 414.7185505859013L337.2114586337309 414.7185505859013Q337.2114586337309 422.4115861427926 340.4476433329398 427.4929638722522Q343.68382803214865 432.57434160171175 350.83749947250516 436.5202159279401Q357.96278332778087 440.4660902541685 369.7436311363044 444.75261560136624L369.7436311363044 444.75261560136624Q382.60320717789756 449.4649547247757 391.60207164850476 454.6882703796391Q400.5725485340311 459.9399736195834 405.2565000723598 467.46268366598997Q409.96883919576925 475.01378129747735 409.96883919576925 486.56752842535474ZM502.0581651978185 392.3775211273277L502.0581651978185 392.3775211273277Q489.99344153848716 392.3775211273277 480.3700501961028 396.5221085491216Q470.7466588537185 400.6383083858346 463.99041360449297 408.47328186812985Q457.26255594034814 416.308255350425 453.6573326350892 427.40780111700985Q450.0804969149109 438.4789592985139 450.0804969149109 452.3604884030152L450.0804969149109 452.3604884030152Q450.0804969149109 470.69886836519885 455.81478910122837 484.2397464487308Q461.5490812875459 497.75223694718187 472.9892780751001 505.1330090681846Q484.40108727757354 512.5137811891873 501.5755762514453 512.5137811891873L501.5755762514453 512.5137811891873Q511.34090551923344 512.5137811891873 519.9707313837905 510.86730125450214Q528.6289448334282 509.2208213198169 536.8045693366928 506.751101417789L536.8045693366928 506.751101417789L536.8045693366928 521.5126456597945Q528.8276579289936 524.4933420932764 520.027506553952 525.9411089323962Q511.2557427639911 527.3888757715158 499.16263151957895 527.3888757715158L499.16263151957895 527.3888757715158Q476.9351524013285 527.3888757715158 462.00328264883836 518.1629106202624Q447.07141289634825 508.9369454690091 439.633865605184 492.074719931026Q432.22470589910046 475.21249439304285 432.22470589910046 452.2469380626921L432.22470589910046 452.2469380626921Q432.22470589910046 435.6685883755167 436.85188226726757 421.95738478150014Q441.4790586354347 408.24618118748356 450.42114793588024 398.2537512390491Q459.36323723632586 388.28970887569545 472.39313878840375 382.8392925401858Q485.39465275540084 377.388876204676 502.256878293384 377.388876204676L502.256878293384 377.388876204676Q513.3564240599687 377.388876204676 523.6327298592112 379.60310784097686Q533.9090356584534 381.7889518921969 542.1982105020411 385.8767641438292L542.1982105020411 385.8767641438292L535.4135776677347 400.2408821947037Q528.4302317378629 397.06147266565637 520.0842817241137 394.7053031039517Q511.7383317103643 392.3775211273277 502.0581651978185 392.3775211273277Z " fill="#1e1e1e" transform="matrix(0.4743833017077799,0,0,0.4743833017077799,0,85.39426218716875)"/><path d="M716.7916023356116 492.8055461934406L716.7916023356116 492.8055461934406Q705.937435668945 492.8055461934406 697.6666023356116 488.3472128601073Q689.3957690022784 483.8680461934406 684.7707690022784 474.7222128601073Q680.1666023356116 465.5555461934406 680.1666023356116 451.6597128601073L680.1666023356116 451.6597128601073Q680.1666023356116 437.07637952677396 685.0416023356116 427.8055461934406Q689.8957690022784 418.5347128601073 698.4791023356116 414.0763795267739Q707.0416023356116 409.61804619344065 717.9582690022784 409.61804619344065L717.9582690022784 409.61804619344065Q723.9582690022784 409.61804619344065 729.562435668945 410.82637952677396Q735.1666023356116 412.0347128601073 738.7499356689451 413.8472128601073L738.7499356689451 413.8472128601073L735.1041023356116 424.0347128601073Q731.437435668945 422.57637952677396 726.624935668945 421.4097128601073Q721.8332690022784 420.2222128601073 717.6666023356116 420.2222128601073L717.6666023356116 420.2222128601073Q709.312435668945 420.2222128601073 703.7916023356116 423.82637952677396Q698.249935668945 427.4097128601073 695.499935668945 434.3680461934406Q692.749935668945 441.32637952677396 692.749935668945 451.49304619344065L692.749935668945 451.49304619344065Q692.749935668945 461.2430461934406 695.437435668945 468.13887952677396Q698.1041023356116 475.0138795267739 703.4166023356116 478.63887952677396Q708.7291023356116 482.26387952677396 716.7082690022784 482.26387952677396L716.7082690022784 482.26387952677396Q723.0832690022784 482.26387952677396 728.2082690022784 480.9097128601073Q733.3332690022784 479.55554619344065 737.5207690022784 477.7222128601073L737.5207690022784 477.7222128601073L737.5207690022784 488.5555461934406Q733.4791023356116 490.6180461934406 728.5416023356116 491.7222128601073Q723.6041023356116 492.8055461934406 716.7916023356116 492.8055461934406ZM756.4791023356116 377.3888795267739L768.6457690022784 377.3888795267739L768.6457690022784 411.4305461934406Q768.6457690022784 414.3680461934406 768.499935668945 417.32637952677396Q768.3541023356116 420.3055461934406 767.9791023356116 422.7847128601073L767.9791023356116 422.7847128601073L768.7916023356116 422.7847128601073Q771.2707690022784 418.5347128601073 775.1249356689451 415.6597128601073Q778.9582690022784 412.76387952677396 783.8749356689451 411.26387952677396Q788.7707690022784 409.76387952677396 794.2707690022784 409.76387952677396L794.2707690022784 409.76387952677396Q803.9374356689451 409.76387952677396 810.4166023356116 412.82637952677396Q816.8957690022784 415.9097128601073 820.1666023356116 422.3472128601073Q823.4166023356116 428.8055461934406 823.4166023356116 439.0555461934406L823.4166023356116 439.0555461934406L823.4166023356116 491.3472128601073L811.4166023356116 491.3472128601073L811.4166023356116 439.8680461934406Q811.4166023356116 429.82637952677396 806.8332690022784 424.8472128601073Q802.2499356689451 419.8680461934406 792.8124356689451 419.8680461934406L792.8124356689451 419.8680461934406Q783.8749356689451 419.8680461934406 778.5624356689451 423.26387952677396Q773.249935668945 426.6805461934406 770.937435668945 433.26387952677396Q768.6457690022784 439.8680461934406 768.6457690022784 449.38887952677396L768.6457690022784 449.38887952677396L768.6457690022784 491.3472128601073L756.4791023356116 491.3472128601073L756.4791023356116 377.3888795267739ZM878.4999356689451 409.76387952677396L878.4999356689451 409.76387952677396Q892.8541023356116 409.76387952677396 899.8124356689451 416.20137952677396Q906.7707690022784 422.63887952677396 906.7707690022784 436.7847128601073L906.7707690022784 436.7847128601073L906.7707690022784 491.3472128601073L897.9166023356116 491.3472128601073L895.5624356689451 479.4722128601073L894.9791023356116 479.4722128601073Q891.6041023356116 483.8680461934406 887.9582690022784 486.8472128601073Q884.2916023356116 489.8055461934406 879.4999356689451 491.3055461934406Q874.6874356689451 492.8055461934406 867.7291023356116 492.8055461934406L867.7291023356116 492.8055461934406Q860.4166023356116 492.8055461934406 854.7291023356116 490.2430461934406Q849.0624356689451 487.6805461934406 845.7916023356116 482.4930461934406Q842.5416023356116 477.2847128601073 842.5416023356116 469.3055461934406L842.5416023356116 469.3055461934406Q842.5416023356116 457.2847128601073 852.0624356689451 450.8472128601073Q861.5832690022784 444.38887952677396 881.0624356689451 443.8055461934406L881.0624356689451 443.8055461934406L894.9166023356116 443.2222128601073L894.9166023356116 438.32637952677396Q894.9166023356116 427.9097128601073 890.4374356689451 423.7430461934406Q885.9791023356116 419.5763795267739 877.8332690022784 419.5763795267739L877.8332690022784 419.5763795267739Q871.5416023356116 419.5763795267739 865.8332690022784 421.4097128601073Q860.1249356689451 423.2222128601073 854.9999356689451 425.7222128601073L854.9999356689451 425.7222128601073L851.2499356689451 416.4930461934406Q856.6666023356116 413.7013795267739 863.7082690022784 411.7430461934406Q870.7291023356116 409.76387952677396 878.4999356689451 409.76387952677396ZM894.7707690022784 459.20137952677396L894.7707690022784 451.8055461934406L882.5207690022784 452.30554619344065Q867.5207690022784 452.88887952677396 861.3541023356116 457.2222128601073Q855.2082690022784 461.5347128601073 855.2082690022784 469.45137952677396L855.2082690022784 469.45137952677396Q855.2082690022784 476.32637952677396 859.3957690022784 479.6180461934406Q863.5624356689451 482.9305461934406 870.4374356689451 482.9305461934406L870.4374356689451 482.9305461934406Q881.1457690022784 482.9305461934406 887.9582690022784 476.9930461934406Q894.7707690022784 471.0555461934406 894.7707690022784 459.20137952677396L894.7707690022784 459.20137952677396ZM1018.9791023356116 409.61804619344065L1018.9791023356116 409.61804619344065Q1032.2291023356115 409.61804619344065 1038.9791023356115 416.5347128601073Q1045.7082690022785 423.4513795267739 1045.7082690022785 438.76387952677396L1045.7082690022785 438.76387952677396L1045.7082690022785 491.3472128601073L1033.7082690022785 491.3472128601073L1033.7082690022785 439.3472128601073Q1033.7082690022785 429.5972128601073 1029.499935668945 424.7430461934406Q1025.2707690022785 419.8680461934406 1016.9999356689451 419.8680461934406L1016.9999356689451 419.8680461934406Q1005.3541023356116 419.8680461934406 1000.0832690022784 426.5972128601073Q994.8124356689451 433.3472128601073 994.8124356689451 446.45137952677396L994.8124356689451 446.45137952677396L994.8124356689451 491.3472128601073L982.7291023356116 491.3472128601073L982.7291023356116 439.3472128601073Q982.7291023356116 432.82637952677396 980.8541023356116 428.51387952677396Q978.9999356689451 424.1805461934406 975.2916023356116 422.01387952677396Q971.5832690022784 419.8680461934406 965.9582690022784 419.8680461934406L965.9582690022784 419.8680461934406Q957.9791023356119 419.8680461934406 953.1457690022784 423.1597128601073Q948.2916023356116 426.45137952677396 946.1457690022784 432.9305461934406Q943.9791023356116 439.4097128601073 943.9791023356116 448.8680461934406L943.9791023356116 448.8680461934406L943.9791023356116 491.3472128601073L931.8124356689451 491.3472128601073L931.8124356689451 411.07637952677396L941.6457690022784 411.07637952677396L943.4582690022784 422.43054619344065L944.1249356689451 422.43054619344065Q946.5416023356116 418.2430461934406 950.2082690022784 415.38887952677396Q953.8749356689449 412.5347128601073 958.4166023356116 411.07637952677396Q962.9582690022784 409.61804619344065 968.0832690022784 409.61804619344065L968.0832690022784 409.61804619344065Q977.2291023356116 409.61804619344065 983.4166023356116 413.01387952677396Q989.6041023356116 416.4305461934406 992.3957690022784 423.3680461934406L992.3957690022784 423.3680461934406L993.0624356689451 423.3680461934406Q996.9999356689451 416.4305461934406 1003.8957690022784 413.01387952677396Q1010.7707690022784 409.61804619344065 1018.9791023356116 409.61804619344065ZM1110.5416023356115 384.26387952677396L1110.5416023356115 491.3472128601073L1098.6666023356115 491.3472128601073L1098.6666023356115 415.4722128601073Q1098.6666023356115 411.13887952677396 1098.7082690022785 408.0347128601073Q1098.749935668945 404.93054619344065 1098.8541023356115 402.32637952677396Q1098.9582690022785 399.7222128601073 1099.187435668945 397.0138795267739L1099.187435668945 397.0138795267739Q1096.9166023356115 399.3472128601073 1094.937435668945 400.99304619344065Q1092.9582690022785 402.6597128601073 1090.0207690022785 405.07637952677396L1090.0207690022785 405.07637952677396L1077.7916023356115 414.8888795267739L1071.4166023356115 406.5972128601073L1100.4166023356115 384.26387952677396L1110.5416023356115 384.26387952677396ZM1196.2916023356115 384.26387952677396L1196.2916023356115 491.3472128601073L1184.437435668945 491.3472128601073L1184.437435668945 415.4722128601073Q1184.437435668945 411.13887952677396 1184.4791023356115 408.0347128601073Q1184.499935668945 404.93054619344065 1184.624935668945 402.32637952677396Q1184.7291023356115 399.7222128601073 1184.937435668945 397.0138795267739L1184.937435668945 397.0138795267739Q1182.6666023356115 399.3472128601073 1180.7082690022785 400.99304619344065Q1178.7291023356115 402.6597128601073 1175.7916023356115 405.07637952677396L1175.7916023356115 405.07637952677396L1163.562435668945 414.8888795267739L1157.187435668945 406.5972128601073L1186.187435668945 384.26387952677396L1196.2916023356115 384.26387952677396ZM1280.2291023356115 409.61804619344065L1280.2291023356115 409.61804619344065Q1294.5207690022785 409.61804619344065 1301.8332690022785 416.5972128601073Q1309.1666023356115 423.5972128601073 1309.1666023356115 439.0555461934406L1309.1666023356115 439.0555461934406L1309.1666023356115 491.3472128601073L1297.1457690022785 491.3472128601073L1297.1457690022785 439.8680461934406Q1297.1457690022785 429.82637952677396 1292.5832690022785 424.8472128601073Q1287.999935668945 419.8680461934406 1278.5416023356115 419.8680461934406L1278.5416023356115 419.8680461934406Q1265.2291023356115 419.8680461934406 1259.7916023356115 427.4097128601073Q1254.374935668945 434.95137952677396 1254.374935668945 449.3055461934406L1254.374935668945 449.3055461934406L1254.374935668945 491.3472128601073L1242.2291023356115 491.3472128601073L1242.2291023356115 411.07637952677396L1252.0416023356115 411.07637952677396L1253.874935668945 422.63887952677396L1254.5207690022785 422.63887952677396Q1257.0832690022785 418.3888795267739 1261.0416023356115 415.51387952677396Q1264.999935668945 412.6180461934406 1269.9166023356115 411.11804619344065Q1274.812435668945 409.61804619344065 1280.2291023356115 409.61804619344065ZM1356.624935668945 527.388879526774L1356.624935668945 527.388879526774Q1340.812435668945 527.388879526774 1332.2291023356115 521.4930461934407Q1323.6666023356115 515.5972128601072 1323.6666023356115 504.9722128601073L1323.6666023356115 504.9722128601073Q1323.6666023356115 497.4305461934406 1328.4582690022785 492.07637952677396Q1333.2707690022785 486.7430461934406 1341.749935668945 484.9722128601073L1341.749935668945 484.9722128601073Q1338.6041023356115 483.51387952677396 1336.374935668945 480.57637952677396Q1334.1457690022785 477.6597128601073 1334.1457690022785 473.8472128601073L1334.1457690022785 473.8472128601073Q1334.1457690022785 469.45137952677396 1336.6041023356115 466.1180461934406Q1339.0416023356115 462.7847128601073 1344.1041023356115 459.70137952677396L1344.1041023356115 459.70137952677396Q1337.812435668945 457.13887952677396 1333.874935668945 451.0347128601073Q1329.9582690022785 444.9097128601073 1329.9582690022785 436.7847128601073L1329.9582690022785 436.7847128601073Q1329.9582690022785 428.13887952677396 1333.562435668945 422.01387952677396Q1337.1457690022785 415.9097128601073 1343.9582690022785 412.68054619344065Q1350.7707690022785 409.4722128601073 1360.437435668945 409.4722128601073L1360.437435668945 409.4722128601073Q1362.562435668945 409.4722128601073 1364.7291023356115 409.63887952677396Q1366.874935668945 409.8263795267739 1368.8541023356115 410.1597128601073Q1370.833269002278 410.4930461934406 1372.2916023356115 410.9305461934406L1372.2916023356115 410.9305461934406L1399.8332690022785 410.9305461934406L1399.8332690022785 418.7638795267739L1385.0416023356115 420.5972128601073Q1387.249935668945 423.4513795267739 1388.7082690022785 427.4722128601073Q1390.1666023356115 431.51387952677396 1390.1666023356115 436.4097128601073L1390.1666023356115 436.4097128601073Q1390.1666023356115 448.4305461934406 1382.041602335612 455.4930461934406Q1373.9166023356115 462.5555461934406 1359.7082690022785 462.5555461934406L1359.7082690022785 462.5555461934406Q1356.3332690022785 462.5555461934406 1352.812435668945 461.9722128601073L1352.812435668945 461.9722128601073Q1349.229102335612 463.95137952677396 1347.3541023356115 466.3680461934406Q1345.499935668945 468.7847128601073 1345.499935668945 471.9305461934406L1345.499935668945 471.9305461934406Q1345.499935668945 474.2847128601073 1346.9166023356115 475.68054619344065Q1348.3541023356115 477.0555461934406 1351.062435668945 477.6805461934406Q1353.770769002278 478.3055461934406 1357.5832690022785 478.3055461934406L1357.5832690022785 478.3055461934406L1371.7082690022785 478.3055461934406Q1384.8332690022785 478.3055461934406 1391.812435668945 483.8055461934406Q1398.812435668945 489.30554619344065 1398.812435668945 499.8472128601073L1398.812435668945 499.8472128601073Q1398.812435668945 513.1805461934407 1387.9791023356115 520.2847128601072Q1377.124935668945 527.388879526774 1356.624935668945 527.388879526774ZM1356.999935668945 517.8680461934407L1356.999935668945 517.8680461934407Q1366.9582690022785 517.8680461934407 1373.499935668945 515.8472128601072Q1380.062435668945 513.826379526774 1383.333269002278 510.05554619344065Q1386.583269002278 506.2847128601073 1386.583269002278 501.0972128601073L1386.583269002278 501.0972128601073Q1386.583269002278 496.26387952677396 1384.3957690022785 493.8055461934406Q1382.187435668945 491.3472128601073 1377.937435668945 490.51387952677396Q1373.687435668945 489.6597128601073 1367.5416023356115 489.6597128601073L1367.5416023356115 489.6597128601073L1353.624935668945 489.6597128601073Q1348.2082690022785 489.6597128601073 1344.1666023356115 491.3472128601073Q1340.1457690022785 493.0347128601073 1337.9791023356115 496.32637952677396Q1335.8332690022785 499.6180461934406 1335.8332690022785 504.5347128601073L1335.8332690022785 504.5347128601073Q1335.8332690022785 511.05554619344065 1341.312435668945 514.451379526774Q1346.812435668945 517.8680461934407 1356.999935668945 517.8680461934407ZM1360.1457690022785 453.70137952677396L1360.1457690022785 453.70137952677396Q1368.8541023356115 453.70137952677396 1373.249935668945 449.3055461934406Q1377.6457690022785 444.9097128601073 1377.6457690022785 436.4930461934406L1377.6457690022785 436.4930461934406Q1377.6457690022785 427.4722128601073 1373.187435668945 422.9722128601073Q1368.7082690022785 418.4722128601073 1359.999935668945 418.4722128601073L1359.999935668945 418.4722128601073Q1351.6457690022785 418.4722128601073 1347.1457690022785 423.1180461934406Q1342.6457690022785 427.76387952677396 1342.6457690022785 436.70137952677396L1342.6457690022785 436.70137952677396Q1342.6457690022785 444.9097128601073 1347.187435668945 449.3055461934406Q1351.7291023356115 453.70137952677396 1360.1457690022785 453.70137952677396ZM1412.7291023356115 384.26387952677396L1425.916602335612 384.26387952677396L1423.124935668945 422.9305461934406L1415.437435668945 422.9305461934406L1412.7291023356115 384.26387952677396ZM1500.4791023356115 469.3680461934406L1500.4791023356115 469.3680461934406Q1500.4791023356115 477.0555461934406 1496.624935668945 482.3055461934406Q1492.7916023356115 487.5347128601073 1485.6457690022785 490.1805461934406Q1478.499935668945 492.8055461934406 1468.6041023356115 492.8055461934406L1468.6041023356115 492.8055461934406Q1460.187435668945 492.8055461934406 1454.041602335612 491.4930461934406Q1447.8957690022785 490.1805461934406 1443.2707690022785 487.76387952677396L1443.2707690022785 487.76387952677396L1443.2707690022785 476.5555461934406Q1448.187435668945 478.9722128601073 1454.999935668945 480.95137952677396Q1461.812435668945 482.9305461934406 1468.9166023356115 482.9305461934406L1468.9166023356115 482.9305461934406Q1479.312435668945 482.9305461934406 1483.999935668945 479.55554619344065Q1488.687435668945 476.1805461934406 1488.687435668945 470.4097128601073L1488.687435668945 470.4097128601073Q1488.687435668945 467.0972128601073 1486.812435668945 464.57637952677396Q1484.937435668945 462.0555461934406 1480.562435668945 459.6597128601073Q1476.1666023356115 457.2847128601073 1468.3957690022785 454.4305461934406L1468.3957690022785 454.4305461934406Q1460.7082690022785 451.49304619344065 1455.1041023356115 448.6180461934406Q1449.499935668945 445.7222128601073 1446.4582690022785 441.5347128601073Q1443.4166023356115 437.3680461934406 1443.4166023356115 430.70137952677396L1443.4166023356115 430.70137952677396Q1443.4166023356115 420.51387952677396 1451.6666023356115 415.05554619344065Q1459.895769002278 409.61804619344065 1473.2916023356115 409.61804619344065L1473.2916023356115 409.61804619344065Q1480.562435668945 409.61804619344065 1486.8957690022785 411.0347128601073Q1493.2291023356115 412.4722128601073 1498.7082690022785 414.8888795267739L1498.7082690022785 414.8888795267739L1494.624935668945 424.6180461934406Q1489.624935668945 422.49304619344065 1483.999935668945 421.0347128601073Q1478.3541023356115 419.5763795267739 1472.499935668945 419.5763795267739L1472.499935668945 419.5763795267739Q1464.0832690022785 419.5763795267739 1459.562435668945 422.3472128601073Q1455.062435668945 425.13887952677396 1455.062435668945 429.9722128601073L1455.062435668945 429.9722128601073Q1455.062435668945 433.7013795267739 1457.1457690022785 436.1180461934406Q1459.2291023356115 438.5347128601073 1463.8541023356115 440.6597128601073Q1468.4582690022785 442.7847128601073 1476.0207690022785 445.63887952677396L1476.0207690022785 445.63887952677396Q1483.562435668945 448.4305461934406 1489.0416023356115 451.38887952677396Q1494.541602335612 454.3680461934406 1497.499935668945 458.5763795267739Q1500.4791023356115 462.7847128601073 1500.4791023356115 469.3680461934406ZM1558.999935668945 377.3888795267739L1571.1457690022785 377.3888795267739L1571.1457690022785 405.86804619344065Q1571.1457690022785 410.7847128601073 1570.8957690022785 415.38887952677396Q1570.6457690022785 420.0138795267739 1570.499935668945 422.57637952677396L1570.499935668945 422.57637952677396L1571.1457690022785 422.57637952677396Q1574.4582690022785 417.1597128601073 1580.6666023356115 413.4097128601073Q1586.8957690022785 409.6805461934406 1596.562435668945 409.6805461934406L1596.562435668945 409.6805461934406Q1611.6666023356115 409.6805461934406 1620.624935668945 420.11804619344065Q1629.604102335612 430.5555461934406 1629.604102335612 451.13887952677396L1629.604102335612 451.13887952677396Q1629.604102335612 464.6805461934406 1625.499935668945 473.9930461934406Q1621.3957690022785 483.2847128601073 1613.9166023356115 488.0555461934406Q1606.4582690022785 492.8055461934406 1596.2707690022785 492.8055461934406L1596.2707690022785 492.8055461934406Q1586.749935668945 492.8055461934406 1580.6457690022785 489.26387952677396Q1574.5207690022785 485.70137952677396 1571.229102335612 480.57637952677396L1571.229102335612 480.57637952677396L1570.2707690022785 480.57637952677396L1567.7916023356115 491.3472128601073L1558.999935668945 491.3472128601073L1558.999935668945 377.3888795267739ZM1594.5832690022785 419.8680461934406L1594.5832690022785 419.8680461934406Q1585.874935668945 419.8680461934406 1580.749935668945 423.26387952677396Q1575.624935668945 426.6805461934406 1573.3957690022785 433.5138795267739Q1571.1457690022785 440.3680461934406 1571.1457690022785 450.8472128601073L1571.1457690022785 450.8472128601073L1571.1457690022785 451.49304619344065Q1571.1457690022785 466.6597128601073 1576.2082690022785 474.6805461934406Q1581.2707690022785 482.70137952677396 1594.5832690022785 482.70137952677396L1594.5832690022785 482.70137952677396Q1605.7916023356115 482.70137952677396 1611.3957690022785 474.4930461934406Q1616.999935668945 466.30554619344065 1616.999935668945 451.0555461934406L1616.999935668945 451.0555461934406Q1616.999935668945 435.5347128601073 1611.4791023356115 427.70137952677396Q1605.937435668945 419.8680461934406 1594.5832690022785 419.8680461934406ZM1662.999935668945 377.3888795267739L1662.999935668945 491.3472128601073L1650.770769002278 491.3472128601073L1650.770769002278 377.3888795267739L1662.999935668945 377.3888795267739ZM1757.8541023356115 451.0555461934406L1757.8541023356115 451.0555461934406Q1757.8541023356115 460.9513795267739 1755.2916023356115 468.7222128601073Q1752.7291023356115 476.4722128601073 1747.895769002278 481.82637952677396Q1743.062435668945 487.1805461934406 1736.2082690022785 489.9930461934406Q1729.3541023356115 492.8055461934406 1720.7082690022785 492.8055461934406L1720.7082690022785 492.8055461934406Q1712.6666023356115 492.8055461934406 1705.958269002278 489.9930461934406Q1699.249935668945 487.1805461934406 1694.374935668945 481.82637952677396Q1689.5207690022785 476.4722128601073 1686.833269002278 468.7222128601073Q1684.166602335612 460.9513795267739 1684.166602335612 451.0555461934406L1684.166602335612 451.0555461934406Q1684.166602335612 437.88887952677396 1688.624935668945 428.6180461934406Q1693.104102335612 419.3472128601073 1701.4166023356115 414.4722128601073Q1709.7291023356115 409.61804619344065 1721.2291023356115 409.61804619344065L1721.2291023356115 409.61804619344065Q1732.2082690022785 409.61804619344065 1740.4582690022785 414.5138795267739Q1748.687435668945 419.4305461934406 1753.2707690022785 428.68054619344065Q1757.8541023356115 437.95137952677396 1757.8541023356115 451.0555461934406ZM1696.7707690022785 451.0555461934406L1696.7707690022785 451.0555461934406Q1696.7707690022785 460.7222128601073 1699.333269002278 467.82637952677396Q1701.895769002278 474.9305461934406 1707.2291023356115 478.82637952677396Q1712.583269002278 482.70137952677396 1720.999935668945 482.70137952677396L1720.999935668945 482.70137952677396Q1729.3541023356115 482.70137952677396 1734.749935668945 478.82637952677396Q1740.124935668945 474.9305461934406 1742.687435668945 467.82637952677396Q1745.249935668945 460.7222128601073 1745.249935668945 451.0555461934406L1745.249935668945 451.0555461934406Q1745.249935668945 441.4722128601073 1742.687435668945 434.4722128601073Q1740.124935668945 427.4722128601073 1734.7707690022785 423.68054619344065Q1729.437435668945 419.8680461934406 1720.937435668945 419.8680461934406L1720.937435668945 419.8680461934406Q1708.4166023356115 419.8680461934406 1702.583269002278 428.13887952677396Q1696.7707690022785 436.4097128601073 1696.7707690022785 451.0555461934406ZM1801.270769002278 527.388879526774L1801.270769002278 527.388879526774Q1785.458269002278 527.388879526774 1776.8957690022785 521.4930461934407Q1768.312435668945 515.5972128601072 1768.312435668945 504.9722128601073L1768.312435668945 504.9722128601073Q1768.312435668945 497.4305461934406 1773.124935668945 492.07637952677396Q1777.9166023356115 486.7430461934406 1786.4166023356115 484.9722128601073L1786.4166023356115 484.9722128601073Q1783.2707690022785 483.51387952677396 1781.020769002278 480.57637952677396Q1778.7916023356115 477.6597128601073 1778.7916023356115 473.8472128601073L1778.7916023356115 473.8472128601073Q1778.7916023356115 469.45137952677396 1781.249935668945 466.1180461934406Q1783.7082690022785 462.7847128601073 1788.749935668945 459.70137952677396L1788.749935668945 459.70137952677396Q1782.4582690022785 457.13887952677396 1778.5416023356115 451.0347128601073Q1774.624935668945 444.9097128601073 1774.624935668945 436.7847128601073L1774.624935668945 436.7847128601073Q1774.624935668945 428.13887952677396 1778.2082690022785 422.01387952677396Q1781.7916023356115 415.9097128601073 1788.6041023356115 412.68054619344065Q1795.4166023356115 409.4722128601073 1805.0832690022785 409.4722128601073L1805.0832690022785 409.4722128601073Q1807.2082690022785 409.4722128601073 1809.374935668945 409.63887952677396Q1811.5416023356115 409.8263795267739 1813.520769002278 410.1597128601073Q1815.4791023356115 410.4930461934406 1816.958269002278 410.9305461934406L1816.958269002278 410.9305461934406L1844.499935668945 410.9305461934406L1844.499935668945 418.7638795267739L1829.708269002278 420.5972128601073Q1831.8957690022785 423.4513795267739 1833.3541023356115 427.4722128601073Q1834.8332690022785 431.51387952677396 1834.8332690022785 436.4097128601073L1834.8332690022785 436.4097128601073Q1834.8332690022785 448.4305461934406 1826.687435668945 455.4930461934406Q1818.562435668945 462.5555461934406 1804.3541023356115 462.5555461934406L1804.3541023356115 462.5555461934406Q1800.9791023356115 462.5555461934406 1797.4791023356115 461.9722128601073L1797.4791023356115 461.9722128601073Q1793.874935668945 463.95137952677396 1792.0207690022785 466.3680461934406Q1790.145769002278 468.7847128601073 1790.145769002278 471.9305461934406L1790.145769002278 471.9305461934406Q1790.145769002278 474.2847128601073 1791.5832690022785 475.68054619344065Q1792.999935668945 477.0555461934406 1795.7082690022785 477.6805461934406Q1798.4166023356115 478.3055461934406 1802.2291023356115 478.3055461934406L1802.2291023356115 478.3055461934406L1816.374935668945 478.3055461934406Q1829.4791023356115 478.3055461934406 1836.4791023356115 483.8055461934406Q1843.458269002278 489.30554619344065 1843.458269002278 499.8472128601073L1843.458269002278 499.8472128601073Q1843.458269002278 513.1805461934407 1832.624935668945 520.2847128601072Q1821.7916023356115 527.388879526774 1801.270769002278 527.388879526774ZM1801.6457690022785 517.8680461934407L1801.6457690022785 517.8680461934407Q1811.6041023356115 517.8680461934407 1818.1666023356115 515.8472128601072Q1824.708269002278 513.826379526774 1827.9791023356115 510.05554619344065Q1831.2291023356115 506.2847128601073 1831.2291023356115 501.0972128601073L1831.2291023356115 501.0972128601073Q1831.2291023356115 496.26387952677396 1829.0416023356115 493.8055461934406Q1826.833269002278 491.3472128601073 1822.6041023356115 490.51387952677396Q1818.3541023356115 489.6597128601073 1812.187435668945 489.6597128601073L1812.187435668945 489.6597128601073L1798.2707690022785 489.6597128601073Q1792.8541023356115 489.6597128601073 1788.833269002278 491.3472128601073Q1784.7916023356115 493.0347128601073 1782.6457690022785 496.32637952677396Q1780.4791023356115 499.6180461934406 1780.4791023356115 504.5347128601073L1780.4791023356115 504.5347128601073Q1780.4791023356115 511.05554619344065 1785.9791023356115 514.451379526774Q1791.458269002278 517.8680461934407 1801.6457690022785 517.8680461934407ZM1804.7916023356115 453.70137952677396L1804.7916023356115 453.70137952677396Q1813.520769002278 453.70137952677396 1817.9166023356115 449.3055461934406Q1822.2916023356115 444.9097128601073 1822.2916023356115 436.4930461934406L1822.2916023356115 436.4930461934406Q1822.2916023356115 427.4722128601073 1817.8332690022785 422.9722128601073Q1813.374935668945 418.4722128601073 1804.645769002278 418.4722128601073L1804.645769002278 418.4722128601073Q1796.2916023356115 418.4722128601073 1791.7916023356115 423.1180461934406Q1787.2916023356115 427.76387952677396 1787.2916023356115 436.70137952677396L1787.2916023356115 436.70137952677396Q1787.2916023356115 444.9097128601073 1791.8332690022785 449.3055461934406Q1796.374935668945 453.70137952677396 1804.7916023356115 453.70137952677396Z " fill="#1e1e1e" transform="matrix(0.4743833017077799,0,0,0.4743833017077799,0,85.39426218716875)"/></g></svg>